<svg width="20" height="20" viewBox="0 0 20 20" fill="none" xmlns="http://www.w3.org/2000/svg">
<path d="M17.4688 3H2.15625C2.07031 3 2 3.07031 2 3.15625V4.40625C2 4.49219 2.07031 4.5625 2.15625 4.5625H17.4688C17.5547 4.5625 17.625 4.49219 17.625 4.40625V3.15625C17.625 3.07031 17.5547 3 17.4688 3ZM17.4688 15.1875H2.15625C2.07031 15.1875 2 15.2578 2 15.3438V16.5938C2 16.6797 2.07031 16.75 2.15625 16.75H17.4688C17.5547 16.75 17.625 16.6797 17.625 16.5938V15.3438C17.625 15.2578 17.5547 15.1875 17.4688 15.1875ZM17.4688 9.09375H2.15625C2.07031 9.09375 2 9.16406 2 9.25V10.5C2 10.5859 2.07031 10.6562 2.15625 10.6562H17.4688C17.5547 10.6562 17.625 10.5859 17.625 10.5V9.25C17.625 9.16406 17.5547 9.09375 17.4688 9.09375Z" fill="black"/>
</svg>
